# xmcd CD database file
# Copyright (C) 1997 Ti Kan
#
# Track frame offsets:
#  182
#  7452
#  22422
#  34272
#  48275
#  58812
#  71480
#  82557
#  93760
#  99992
#  112342
#  125677
#  138307
#  148465
#  161067
#  177135
#
# Disc length: 2499 seconds
#
# Revision: 1
# Processed by: cddbd v1.4b41PL1 Copyright (c) Steve Scherf et al.
# Submitted via: CDWizzard Release:4.32
#
DISCID=e809c110
DTITLE=Mills. frank - Homeward
DYEAR=1900
DGENRE=
TTITLE0=The Land That I Call home Part 1
TTITLE1=Fair And Tender Ladies
TTITLE2=Skye Boat Song
TTITLE3=Reminiiscing With You
TTITLE4=Amazing Grace
TTITLE5=Coming Home
TTITLE6=When You And I Were Young Maggie
TTITLE7=With Someone Like You
TTITLE8=The land That I Call Home Part 2
TTITLE9=Danny Boy
TTITLE10=The Mountains Of Mourne
TTITLE11=Mary's Song
TTITLE12=Shenandoah
TTITLE13=The Land That I Call Home Part 3
TTITLE14=The Road To Home
TTITLE15=Now Is The Hour
EXTD=
EXTT0=
EXTT1=
EXTT2=
EXTT3=
EXTT4=
EXTT5=
EXTT6=
EXTT7=
EXTT8=
EXTT9=
EXTT10=
EXTT11=
EXTT12=
EXTT13=
EXTT14=
EXTT15=
PLAYORDER=
